<svg width="87" height="87" viewBox="0 0 87 87" fill="none" xmlns="http://www.w3.org/2000/svg">
<path d="M43.2487 86.2294C41.5117 86.2294 40.1084 84.8305 40.1084 83.0988V63.1067C40.1084 61.3751 41.5117 59.9762 43.2487 59.9762C44.9857 59.9762 46.389 61.3751 46.389 63.1067V83.0988C46.389 84.8305 44.9857 86.2294 43.2487 86.2294Z" fill="url(#paint0_linear_922_30)"/>
<path d="M83.3572 46.2452H63.3029C61.5659 46.2452 60.1626 44.8463 60.1626 43.1147C60.1626 41.383 61.5659 39.9841 63.3029 39.9841H83.3572C85.0942 39.9841 86.4974 41.383 86.4974 43.1147C86.4974 44.8463 85.0942 46.2452 83.3572 46.2452Z" fill="url(#paint1_linear_922_30)"/>
<path d="M43.2487 26.2532C41.5117 26.2532 40.1084 24.8543 40.1084 23.1226V3.13055C40.1084 1.3989 41.5117 0 43.2487 0C44.9857 0 46.389 1.3989 46.389 3.13055V23.1226C46.389 24.8543 44.9857 26.2532 43.2487 26.2532Z" fill="url(#paint2_linear_922_30)"/>
<path d="M57.4313 32.1136C56.6275 32.1136 55.8237 31.808 55.2106 31.1969C53.9845 29.9745 53.9845 27.9916 55.2106 26.7693L69.393 12.6309C70.6192 11.4085 72.6082 11.4085 73.8344 12.6309C75.0605 13.8532 75.0605 15.8361 73.8344 17.0585L59.652 31.1969C59.0389 31.808 58.2351 32.1136 57.4313 32.1136Z" fill="url(#paint3_linear_922_30)"/>
<path d="M71.6069 74.5152C70.8031 74.5152 69.9993 74.2096 69.3862 73.5985L55.2038 59.4601C53.9776 58.2377 53.9776 56.2548 55.2038 55.0325C56.4299 53.8101 58.419 53.8101 59.6452 55.0325L73.8275 69.1709C75.0537 70.3932 75.0537 72.3761 73.8275 73.5985C73.2145 74.2096 72.4107 74.5152 71.6069 74.5152Z" fill="url(#paint4_linear_922_30)"/>
<path d="M45.4967 45.2945C45.633 45.1587 45.7488 45.0093 45.8578 44.8531C45.9123 44.7716 45.9531 44.6834 45.994 44.6019C46.0485 44.5068 46.103 44.4185 46.1439 44.3167C46.1847 44.208 46.212 44.0994 46.2461 43.9907C46.2733 43.9024 46.3074 43.8209 46.321 43.7327C46.4027 43.3252 46.4027 42.911 46.321 42.5035C46.3005 42.4152 46.2665 42.3337 46.2461 42.2455C46.212 42.1368 46.1916 42.0214 46.1439 41.9195C46.103 41.8177 46.0417 41.7294 45.994 41.6343C45.9463 41.546 45.9123 41.4645 45.8578 41.383C45.7488 41.2269 45.6262 41.0775 45.4967 40.9416C45.4831 40.9281 45.4763 40.9145 45.4695 40.9077L31.2871 26.7693L17.1047 12.6309C15.8786 11.4085 13.8895 11.4085 12.6633 12.6309C11.4372 13.8532 11.4372 15.8361 12.6633 17.0585L26.8457 31.1969L35.6603 39.9841H3.14029C1.40325 39.9841 0 41.383 0 43.1147C0 44.8463 1.40325 46.2452 3.14029 46.2452H35.6603L12.6633 69.1709C11.4372 70.3933 11.4372 72.3762 12.6633 73.5985C13.2764 74.2097 14.0802 74.5153 14.884 74.5153C15.0884 74.5153 15.2859 74.4949 15.4835 74.4609C16.0761 74.3455 16.6483 74.0603 17.1047 73.5985L45.4627 45.3285C45.4763 45.3149 45.4831 45.3013 45.4899 45.2945H45.4967Z" fill="url(#paint5_linear_922_30)"/>
<defs>
<linearGradient id="paint0_linear_922_30" x1="43.2487" y1="59.9762" x2="43.2487" y2="86.2294" gradientUnits="userSpaceOnUse">
<stop stop-color="#F15622"/>
<stop offset="1" stop-color="#FBAC18"/>
</linearGradient>
<linearGradient id="paint1_linear_922_30" x1="60.1626" y1="43.1147" x2="86.4974" y2="43.1147" gradientUnits="userSpaceOnUse">
<stop stop-color="#F15622"/>
<stop offset="1" stop-color="#FBAC18"/>
</linearGradient>
<linearGradient id="paint2_linear_922_30" x1="-0.000114404" y1="26.2532" x2="0.676861" y2="-0.000107631" gradientUnits="userSpaceOnUse">
<stop stop-color="#F15622"/>
<stop offset="1" stop-color="#FBAC18"/>
</linearGradient>
<linearGradient id="paint3_linear_922_30" x1="54.2842" y1="21.9139" x2="74.754" y2="21.9139" gradientUnits="userSpaceOnUse">
<stop stop-color="#F15622"/>
<stop offset="1" stop-color="#FBAC18"/>
</linearGradient>
<linearGradient id="paint4_linear_922_30" x1="54.2842" y1="64.3155" x2="74.754" y2="64.3155" gradientUnits="userSpaceOnUse">
<stop stop-color="#F15622"/>
<stop offset="1" stop-color="#FBAC18"/>
</linearGradient>
<linearGradient id="paint5_linear_922_30" x1="0" y1="43.1147" x2="46.3891" y2="43.1147" gradientUnits="userSpaceOnUse">
<stop stop-color="#28256B"/>
<stop offset="1" stop-color="#E44883"/>
</linearGradient>
</defs>
</svg>
