<svg width="353" height="89" viewBox="0 0 353 89" fill="none" xmlns="http://www.w3.org/2000/svg">
<g clip-path="url(#clip0_918_443)">
<path d="M117.322 35.7602H106.259V29.6825H112.424V25.8864H106.259V21.2823H116.865V17.4862H102.363V39.5562H117.322V35.7602Z" fill="#1F0970"/>
<path d="M124.59 29.8318C124.59 27.4075 125.646 26.0765 127.56 26.0765C128.943 26.0765 130.53 26.5383 130.53 30.1374V39.5495H134.365V30.0152C134.365 23.8016 131.061 22.4978 128.296 22.4978C126.852 22.4978 125.51 22.9867 124.59 23.8084V22.8373H120.755V39.5562H124.59V29.8386V29.8318Z" fill="#1F0970"/>
<path d="M144.848 22.4978C140.291 22.4978 137.458 25.8389 137.458 31.2104C137.458 36.5819 140.462 39.889 144.753 39.889C147.124 39.889 148.963 39.1895 150.536 37.6888L150.775 37.4579L148.472 34.9725L148.227 35.1558C147.076 36.0115 146.095 36.3714 144.937 36.3714C142.968 36.3714 141.647 35.02 141.279 32.65H151.837L151.885 32.1679C151.919 31.8351 151.96 31.3801 151.96 30.8708C151.96 25.7845 149.167 22.4978 144.848 22.4978ZM144.63 26.0154C147.09 26.0154 147.866 27.7607 148.057 29.3701H141.34C141.592 27.7607 142.376 26.0154 144.63 26.0154Z" fill="#1F0970"/>
<path d="M159.045 30.0492C159.045 28.3243 159.535 26.2667 161.858 26.2667C162.743 26.2667 163.418 26.4297 164.119 26.8032L164.494 27.0069L165.502 23.3602L165.298 23.2244C164.542 22.7219 163.643 22.4978 162.382 22.4978C161.122 22.4978 159.916 22.9799 159.045 23.788V22.8305H155.209V39.5495H159.045V30.0424V30.0492Z" fill="#1F0970"/>
<path d="M171.626 42.388L171.129 42.4083L172.498 45.4506H172.723C178.431 45.2605 180.652 43.0874 180.652 37.6819V22.8305H176.817V23.8695C175.945 23.1497 174.637 22.491 173.145 22.491C169.814 22.491 166.456 25.0986 166.456 30.9251C166.456 39.0062 171.027 39.8822 172.989 39.8822C174.331 39.8822 175.564 39.4136 176.81 38.4221C176.722 41.152 175.802 42.1842 171.626 42.3812V42.388ZM173.568 36.3102C171.361 36.3102 170.291 34.5242 170.291 30.8436C170.291 27.6859 171.354 26.0833 173.445 26.0833C174.794 26.0833 176.149 27.0408 176.878 27.9643V34.4835C175.931 35.6311 174.698 36.3102 173.574 36.3102H173.568Z" fill="#1F0970"/>
<path d="M190.822 45.2062L199.167 22.8306H195.093L192.287 30.9727C191.96 31.8895 191.544 33.2205 191.183 34.436C190.938 33.594 190.57 32.4192 190.08 30.9184L187.368 22.8306H183.166L189.208 38.9044L186.742 45.2062H190.815H190.822Z" fill="#1F0970"/>
<path d="M119.345 52.7303C119.345 47.7731 115.605 46.0074 112.111 46.0074H102.363V68.0775H106.198V59.6162H110.489L114.747 68.0775H119.215L114.767 59.2155C117.717 58.3191 119.338 56.0306 119.338 52.7371L119.345 52.7303ZM106.198 49.7084H112.111C114.181 49.7084 115.414 50.8696 115.414 52.8186C115.414 55.501 113.344 55.9016 112.111 55.9016H106.198V49.7084Z" fill="#1F0970"/>
<path d="M129.032 51.019C124.474 51.019 121.641 54.3601 121.641 59.7316C121.641 65.1031 124.645 68.4102 128.936 68.4102C131.307 68.4102 133.146 67.7108 134.719 66.21L134.958 65.9791L132.655 63.4937L132.41 63.6771C131.259 64.5327 130.278 64.8926 129.12 64.8926C127.151 64.8926 125.83 63.5412 125.462 61.1713H136.021L136.068 60.6891C136.102 60.3564 136.143 59.9014 136.143 59.3921C136.143 54.3058 133.35 51.019 129.032 51.019ZM128.82 54.5367C131.279 54.5367 132.056 56.2819 132.247 57.8913H125.53C125.782 56.2819 126.566 54.5367 128.82 54.5367Z" fill="#1F0970"/>
<path d="M145.373 57.6401C142.825 56.6419 142.614 56.1258 142.614 55.6368C142.614 54.7065 143.629 54.5095 144.481 54.5095C145.904 54.5095 147.165 54.9238 148.452 55.827L148.759 56.0375L150.475 53.0359L150.23 52.8594C148.609 51.6914 146.551 51.0259 144.576 51.0259C140.979 51.0259 138.752 52.8322 138.752 55.7387C138.752 58.6451 140.414 59.8267 143.69 61.0966C145.938 61.9522 147.212 62.4819 147.212 63.4666C147.212 64.4513 146.333 64.8994 144.61 64.8994C143.139 64.8994 141.538 64.3562 140.114 63.3715L139.815 63.1678L138.03 66.1286L138.282 66.3119C140.06 67.6158 142.498 68.4239 144.644 68.4239C148.697 68.4239 151.02 66.5768 151.02 63.3444C151.02 60.1119 148.888 58.9983 145.38 57.6469L145.373 57.6401Z" fill="#1F0970"/>
<path d="M160.823 51.019C156.327 51.019 153.309 54.5231 153.309 59.7316C153.309 64.9401 156.361 68.4102 160.727 68.4102C165.094 68.4102 168.329 64.8858 168.329 59.6365C168.329 54.3873 165.237 51.019 160.816 51.019H160.823ZM160.85 64.7364C158.547 64.7364 157.171 62.8282 157.171 59.6365C157.171 56.4449 158.52 54.6929 160.693 54.6929C163.016 54.6929 164.46 56.6214 164.46 59.7316C164.46 62.6313 162.941 64.7364 160.85 64.7364Z" fill="#1F0970"/>
<path d="M181.197 61.0762C181.197 63.5005 180.141 64.8315 178.227 64.8315C176.844 64.8315 175.257 64.3697 175.257 60.7706V51.3586H171.422V60.8929C171.422 67.1064 174.726 68.4103 177.498 68.4103C178.922 68.4103 180.284 67.9145 181.204 67.0928V68.0707H185.046V51.3518H181.204V61.0694L181.197 61.0762Z" fill="#1F0970"/>
<path d="M196.19 51.0191C194.937 51.0191 193.724 51.5013 192.852 52.3094V51.3519H189.017V68.0708H192.852V58.5637C192.852 56.8388 193.343 54.7812 195.665 54.7812C196.565 54.7812 197.219 54.9374 197.927 55.3177L198.302 55.5214L199.31 51.8748L199.106 51.7389C198.349 51.2364 197.45 51.0123 196.19 51.0123V51.0191Z" fill="#1F0970"/>
<path d="M207.593 54.6929C208.915 54.6929 209.984 55.2294 211.272 56.5468L211.538 56.8184L213.833 54.0817L213.649 53.8644C212.028 51.9562 210.08 51.0259 207.689 51.0259C203.268 51.0259 200.298 54.5367 200.298 59.7656C200.298 64.9945 203.37 68.4171 207.593 68.4171C210.727 68.4171 212.403 66.8348 213.622 65.2933L213.813 65.0556L211.326 62.611L211.088 62.8622C209.869 64.1389 209.051 64.7433 207.689 64.7433C205.093 64.7433 204.167 62.122 204.167 59.6773C204.167 56.6079 205.482 54.6997 207.6 54.6997L207.593 54.6929Z" fill="#1F0970"/>
<path d="M223.165 51.019C218.608 51.019 215.774 54.3601 215.774 59.7316C215.774 65.1031 218.778 68.4102 223.07 68.4102C225.441 68.4102 227.28 67.7108 228.853 66.21L229.099 65.9791L226.796 63.4937L226.551 63.6771C225.4 64.5327 224.412 64.8926 223.261 64.8926C221.292 64.8926 219.971 63.5412 219.603 61.1713H230.161L230.209 60.6891C230.243 60.3564 230.284 59.9014 230.284 59.3921C230.284 54.3058 227.491 51.019 223.172 51.019H223.165ZM222.954 54.5367C225.413 54.5367 226.19 56.2819 226.381 57.8913H219.664C219.916 56.2819 220.699 54.5367 222.954 54.5367Z" fill="#1F0970"/>
<path d="M255.351 54.6521H246.162V46.0074H242.259V68.0775H246.162V58.5432H255.351V68.0775H259.248V46.0074H255.351V54.6521Z" fill="#1F0970"/>
<path d="M273.341 61.0762C273.341 63.5005 272.286 64.8315 270.371 64.8315C268.989 64.8315 267.401 64.3697 267.401 60.7706V51.3586H263.566V60.8929C263.566 67.1064 266.87 68.4103 269.636 68.4103C271.059 68.4103 272.422 67.9145 273.341 67.0928V68.0707H277.177V51.3518H273.341V61.0694V61.0762Z" fill="#1F0970"/>
<path d="M288.825 51.0191C287.463 51.0191 286.223 51.4876 284.963 52.4859V44.9073L281.155 46.8767V68.0775H284.963V67.0249C285.855 67.7515 287.183 68.4102 288.668 68.4102C291.754 68.4102 295.351 66.2032 295.351 59.9761C295.351 54.2854 292.967 51.0191 288.818 51.0191H288.825ZM284.935 56.4313C285.882 55.2837 287.115 54.6046 288.239 54.6046C290.446 54.6046 291.516 56.3906 291.516 60.0712C291.516 63.2289 290.453 64.8315 288.362 64.8315C287.013 64.8315 285.657 63.874 284.935 62.9505V56.4313Z" fill="#1F0970"/>
<path d="M43.2489 86.2294C41.5119 86.2294 40.1086 84.8305 40.1086 83.0988V63.1067C40.1086 61.3751 41.5119 59.9762 43.2489 59.9762C44.986 59.9762 46.3892 61.3751 46.3892 63.1067V83.0988C46.3892 84.8305 44.986 86.2294 43.2489 86.2294Z" fill="url(#paint0_linear_918_443)"/>
<path d="M83.3572 46.2452H63.3029C61.5659 46.2452 60.1626 44.8463 60.1626 43.1147C60.1626 41.383 61.5659 39.9841 63.3029 39.9841H83.3572C85.0942 39.9841 86.4974 41.383 86.4974 43.1147C86.4974 44.8463 85.0942 46.2452 83.3572 46.2452Z" fill="url(#paint1_linear_918_443)"/>
<path d="M43.2489 26.2532C41.5119 26.2532 40.1086 24.8543 40.1086 23.1226V3.13055C40.1086 1.3989 41.5119 0 43.2489 0C44.986 0 46.3892 1.3989 46.3892 3.13055V23.1226C46.3892 24.8543 44.986 26.2532 43.2489 26.2532Z" fill="url(#paint2_linear_918_443)"/>
<path d="M57.4313 32.1136C56.6275 32.1136 55.8237 31.808 55.2106 31.1969C53.9845 29.9745 53.9845 27.9916 55.2106 26.7693L69.393 12.6309C70.6192 11.4085 72.6082 11.4085 73.8344 12.6309C75.0605 13.8532 75.0605 15.8361 73.8344 17.0585L59.652 31.1969C59.0389 31.808 58.2351 32.1136 57.4313 32.1136Z" fill="url(#paint3_linear_918_443)"/>
<path d="M71.6069 74.5152C70.8031 74.5152 69.9993 74.2096 69.3862 73.5985L55.2038 59.4601C53.9776 58.2377 53.9776 56.2548 55.2038 55.0325C56.4299 53.8101 58.419 53.8101 59.6452 55.0325L73.8275 69.1709C75.0537 70.3932 75.0537 72.3761 73.8275 73.5985C73.2145 74.2096 72.4107 74.5152 71.6069 74.5152Z" fill="url(#paint4_linear_918_443)"/>
<path d="M45.4967 45.2945C45.633 45.1587 45.7488 45.0093 45.8578 44.8531C45.9123 44.7716 45.9531 44.6834 45.994 44.6019C46.0485 44.5068 46.103 44.4185 46.1439 44.3167C46.1847 44.208 46.212 44.0994 46.2461 43.9907C46.2733 43.9024 46.3074 43.8209 46.321 43.7327C46.4027 43.3252 46.4027 42.911 46.321 42.5035C46.3005 42.4152 46.2665 42.3337 46.2461 42.2455C46.212 42.1368 46.1916 42.0214 46.1439 41.9195C46.103 41.8177 46.0417 41.7294 45.994 41.6343C45.9463 41.546 45.9123 41.4645 45.8578 41.383C45.7488 41.2269 45.6262 41.0775 45.4967 40.9416C45.4831 40.9281 45.4763 40.9145 45.4695 40.9077L31.2871 26.7693L17.1047 12.6309C15.8786 11.4085 13.8895 11.4085 12.6633 12.6309C11.4372 13.8532 11.4372 15.8361 12.6633 17.0585L26.8457 31.1969L35.6603 39.9841H3.14029C1.40325 39.9841 0 41.383 0 43.1147C0 44.8463 1.40325 46.2452 3.14029 46.2452H35.6603L12.6633 69.1709C11.4372 70.3933 11.4372 72.3762 12.6633 73.5985C13.2764 74.2097 14.0802 74.5153 14.884 74.5153C15.0884 74.5153 15.2859 74.4949 15.4835 74.4609C16.0761 74.3455 16.6483 74.0603 17.1047 73.5985L45.4627 45.3285C45.4763 45.3149 45.4831 45.3013 45.4899 45.2945H45.4967Z" fill="url(#paint5_linear_918_443)"/>
<path d="M109.999 83.3433C109.999 85.1496 108.847 86.3856 106.273 86.3856C104.801 86.3856 103.534 85.754 102.689 84.7626L103.766 83.7168C104.44 84.4502 105.435 84.9052 106.388 84.9052C107.798 84.9052 108.473 84.4162 108.473 83.4384C108.473 82.6642 107.88 82.2771 106.198 81.7746C104.065 81.1431 103.044 80.6134 103.044 78.8206C103.044 77.0279 104.515 76.0228 106.368 76.0228C107.737 76.0228 108.772 76.5253 109.665 77.3878L108.602 78.4607C107.969 77.8156 107.247 77.4964 106.259 77.4964C105.08 77.4964 104.576 78.0736 104.576 78.7459C104.576 79.4182 105.04 79.7917 106.777 80.3078C108.766 80.9122 109.999 81.5437 109.999 83.3365V83.3433Z" fill="#50555B"/>
<path d="M118.03 82.3111C118.03 82.5827 118.003 82.8272 117.989 82.9834H112.996C113.153 84.4298 113.977 85.0478 114.896 85.0478C115.53 85.0478 116.034 84.8169 116.538 84.4434L117.417 85.3941C116.756 86.0256 115.966 86.3855 114.808 86.3855C113.037 86.3855 111.538 84.9663 111.538 82.4673C111.538 79.9683 112.894 78.5354 114.849 78.5354C116.994 78.5354 118.03 80.2738 118.03 82.3111ZM116.531 81.7678C116.456 80.7356 115.973 79.8732 114.746 79.8732C113.752 79.8732 113.146 80.5591 113.016 81.7678H116.531Z" fill="#50555B"/>
<path d="M124.365 78.8546L123.977 80.2603C123.657 80.0905 123.33 79.9886 122.839 79.9886C121.906 79.9886 121.354 80.6473 121.354 81.924V86.2294H119.869V78.6916H121.354V79.4114C121.702 78.9089 122.335 78.5354 123.084 78.5354C123.691 78.5354 124.065 78.6508 124.365 78.8478V78.8546Z" fill="#50555B"/>
<path d="M132.131 78.6917L129.467 86.2294H127.982L125.278 78.6917H126.831L128.187 82.7797C128.432 83.5131 128.65 84.2126 128.745 84.6336C128.834 84.2193 129.031 83.5131 129.263 82.7797L130.557 78.6917H132.124H132.131Z" fill="#50555B"/>
<path d="M135.468 76.7698C135.468 77.2859 135.039 77.7138 134.515 77.7138C133.99 77.7138 133.547 77.2859 133.547 76.7698C133.547 76.2537 133.977 75.8055 134.515 75.8055C135.053 75.8055 135.468 76.2334 135.468 76.7698ZM135.257 86.2294H133.772V78.6916H135.257V86.2294Z" fill="#50555B"/>
<path d="M143.595 86.2294H142.11V81.9647C142.11 80.4436 141.531 79.9003 140.557 79.9003C139.583 79.9003 139.004 80.6066 139.004 81.8221V86.2294H137.519V78.6916H139.004V79.4114C139.378 78.8681 140.128 78.5354 140.904 78.5354C142.662 78.5354 143.595 79.683 143.595 81.9104V86.2294Z" fill="#50555B"/>
<path d="M151.742 85.5095C151.742 87.8048 150.904 88.9117 148.173 89L147.669 87.8795C149.801 87.7777 150.257 87.2072 150.257 85.6386V85.5095C149.712 86.0121 149.092 86.3855 148.302 86.3855C146.688 86.3855 145.394 85.2107 145.394 82.3382C145.394 79.7577 146.817 78.5354 148.37 78.5354C149.133 78.5354 149.855 78.9361 150.257 79.3978V78.6916H151.742V85.5095ZM150.291 84.0631V80.8918C149.958 80.4504 149.27 79.9003 148.52 79.9003C147.458 79.9003 146.879 80.7017 146.879 82.2975C146.879 84.1921 147.485 85.0274 148.575 85.0274C149.283 85.0274 149.896 84.552 150.291 84.0631Z" fill="#50555B"/>
<path d="M165.291 84.4638C164.569 85.6997 163.35 86.3856 161.824 86.3856C159.215 86.3856 157.56 84.2465 157.56 81.2042C157.56 78.1619 159.215 76.0228 161.824 76.0228C163.465 76.0228 164.562 76.6815 165.25 77.9039L163.915 78.7391C163.397 77.9242 162.866 77.5372 161.831 77.5372C160.073 77.5372 159.126 78.9564 159.126 81.211C159.126 83.4655 160.073 84.8848 161.831 84.8848C162.88 84.8848 163.527 84.457 164.045 83.6353L165.298 84.4706L165.291 84.4638Z" fill="#50555B"/>
<path d="M173.329 86.2294H171.844V81.9648C171.844 80.4436 171.265 79.9004 170.291 79.9004C169.317 79.9004 168.738 80.6066 168.738 81.8221V86.2294H167.253V76.5389L168.738 75.7648V79.4114C169.113 78.8682 169.862 78.5354 170.638 78.5354C172.396 78.5354 173.329 79.6831 173.329 81.9104V86.2294Z" fill="#50555B"/>
<path d="M181.251 86.2294H179.8V85.4824C179.283 85.9985 178.547 86.3856 177.73 86.3856C176.503 86.3856 175.107 85.6997 175.107 83.8458C175.107 82.1685 176.401 81.4079 178.118 81.4079C178.826 81.4079 179.385 81.5098 179.8 81.6932V81.1363C179.8 80.3214 179.296 79.8596 178.377 79.8596C177.6 79.8596 176.994 80.0023 176.401 80.335L175.829 79.2145C176.551 78.7731 177.355 78.5422 178.418 78.5422C180.1 78.5422 181.251 79.3571 181.251 81.0684V86.2362V86.2294ZM179.794 84.0903V83.0174C179.392 82.8136 178.874 82.6846 178.063 82.6846C177.11 82.6846 176.51 83.1124 176.51 83.8051C176.51 84.5521 176.987 85.0546 177.961 85.0546C178.751 85.0546 179.446 84.5657 179.787 84.0903H179.794Z" fill="#50555B"/>
<path d="M187.872 78.8546L187.484 80.2603C187.171 80.0905 186.837 79.9886 186.346 79.9886C185.413 79.9886 184.861 80.6473 184.861 81.924V86.2294H183.376V78.6916H184.861V79.4114C185.209 78.9089 185.842 78.5354 186.592 78.5354C187.198 78.5354 187.573 78.6508 187.872 78.8478V78.8546Z" fill="#50555B"/>
<path d="M190.958 86.2294H189.473V76.5389L190.958 75.7648V86.2294Z" fill="#50555B"/>
<path d="M199.596 82.4265C199.596 84.9255 198.124 86.3855 196.183 86.3855C194.242 86.3855 192.859 84.8237 192.859 82.4673C192.859 80.1109 194.33 78.5354 196.231 78.5354C198.131 78.5354 199.596 80.0701 199.596 82.4265ZM198.097 82.4673C198.097 80.9325 197.362 79.9411 196.169 79.9411C195.046 79.9411 194.358 80.9325 194.358 82.4265C194.358 84.0767 195.12 84.9799 196.244 84.9799C197.368 84.9799 198.104 83.8458 198.104 82.4673H198.097Z" fill="#50555B"/>
<path d="M205.141 84.7354L204.97 86.0392C204.609 86.2429 204.105 86.3856 203.52 86.3856C202.47 86.3856 201.823 85.7404 201.823 84.3891V80.043H200.747V78.6916H201.823V76.5389L203.274 75.7648V78.6916H205.148V80.043H203.274V84.131C203.274 84.8373 203.506 85.0342 204.051 85.0342C204.439 85.0342 204.875 84.8916 205.148 84.7354H205.141Z" fill="#50555B"/>
<path d="M210.726 84.7354L210.556 86.0392C210.195 86.2429 209.691 86.3856 209.105 86.3856C208.056 86.3856 207.409 85.7404 207.409 84.3891V80.043H206.333V78.6916H207.409V76.5389L208.86 75.7648V78.6916H210.733V80.043H208.86V84.131C208.86 84.8373 209.091 85.0342 209.636 85.0342C210.025 85.0342 210.461 84.8916 210.733 84.7354H210.726Z" fill="#50555B"/>
<path d="M218.587 82.3111C218.587 82.5827 218.56 82.8272 218.547 82.9834H213.553C213.71 84.4298 214.534 85.0478 215.454 85.0478C216.087 85.0478 216.592 84.8169 217.096 84.4434L217.974 85.3941C217.314 86.0256 216.523 86.3855 215.365 86.3855C213.594 86.3855 212.096 84.9663 212.096 82.4673C212.096 79.9683 213.451 78.5354 215.406 78.5354C217.552 78.5354 218.587 80.2738 218.587 82.3111ZM217.089 81.7678C217.014 80.7356 216.53 79.8732 215.304 79.8732C214.31 79.8732 213.703 80.5591 213.574 81.7678H217.089Z" fill="#50555B"/>
<path d="M225.576 84.165C225.576 85.8287 224.221 86.3923 222.743 86.3923C221.721 86.3923 220.611 85.9917 219.848 85.428L220.522 84.3076C221.23 84.7965 222.021 85.0546 222.722 85.0546C223.656 85.0546 224.105 84.7558 224.105 84.2193C224.105 83.6421 223.444 83.3704 222.348 82.9562C220.72 82.3247 220.134 81.7814 220.134 80.5862C220.134 79.2348 221.196 78.5354 222.709 78.5354C223.662 78.5354 224.596 78.8817 225.27 79.3707L224.623 80.5047C224.003 80.0769 223.383 79.8596 222.661 79.8596C221.939 79.8596 221.626 80.1448 221.626 80.5455C221.626 80.919 221.884 81.1906 223.022 81.6388C224.705 82.2839 225.57 82.7457 225.57 84.165H225.576Z" fill="#50555B"/>
<path d="M233.349 78.6917L230.685 86.2294H229.2L226.496 78.6917H228.049L229.405 82.7797C229.65 83.5131 229.868 84.2126 229.963 84.6336C230.052 84.2193 230.249 83.5131 230.481 82.7797L231.775 78.6917H233.342H233.349Z" fill="#50555B"/>
<path d="M236.693 76.7698C236.693 77.2859 236.264 77.7138 235.747 77.7138C235.229 77.7138 234.779 77.2859 234.779 76.7698C234.779 76.2537 235.208 75.8055 235.747 75.8055C236.285 75.8055 236.693 76.2334 236.693 76.7698ZM236.475 86.2294H234.99V78.6916H236.475V86.2294Z" fill="#50555B"/>
<path d="M240.29 86.2294H238.805V76.5389L240.29 75.7648V86.2294Z" fill="#50555B"/>
<path d="M244.105 86.2294H242.62V76.5389L244.105 75.7648V86.2294Z" fill="#50555B"/>
<path d="M252.504 82.3111C252.504 82.5827 252.477 82.8272 252.463 82.9834H247.47C247.627 84.4298 248.451 85.0478 249.37 85.0478C250.004 85.0478 250.508 84.8169 251.012 84.4434L251.891 85.3941C251.23 86.0256 250.44 86.3855 249.282 86.3855C247.511 86.3855 246.012 84.9663 246.012 82.4673C246.012 79.9683 247.368 78.5354 249.323 78.5354C251.469 78.5354 252.504 80.2738 252.504 82.3111ZM251.005 81.7678C250.93 80.7356 250.447 79.8732 249.221 79.8732C248.226 79.8732 247.62 80.5591 247.49 81.7678H251.005Z" fill="#50555B"/>
<path d="M264.023 86.2294H262.572V85.4824C262.054 85.9985 261.318 86.3856 260.501 86.3856C259.275 86.3856 257.878 85.6997 257.878 83.8458C257.878 82.1685 259.173 81.4079 260.889 81.4079C261.598 81.4079 262.156 81.5098 262.572 81.6932V81.1363C262.572 80.3214 262.068 79.8596 261.148 79.8596C260.372 79.8596 259.765 80.0023 259.173 80.335L258.6 79.2145C259.323 78.7731 260.126 78.5422 261.189 78.5422C262.872 78.5422 264.023 79.3571 264.023 81.0684V86.2362V86.2294ZM262.565 84.0903V83.0174C262.163 82.8136 261.645 82.6846 260.835 82.6846C259.881 82.6846 259.282 83.1124 259.282 83.8051C259.282 84.5521 259.759 85.0546 260.733 85.0546C261.523 85.0546 262.218 84.5657 262.558 84.0903H262.565Z" fill="#50555B"/>
<path d="M272.231 86.2294H270.746V81.9647C270.746 80.4436 270.167 79.9003 269.193 79.9003C268.219 79.9003 267.64 80.6066 267.64 81.8221V86.2294H266.155V78.6916H267.64V79.4114C268.014 78.8681 268.764 78.5354 269.54 78.5354C271.298 78.5354 272.231 79.683 272.231 81.9104V86.2294Z" fill="#50555B"/>
<path d="M280.378 86.2294H278.907V85.5095C278.362 86.0121 277.728 86.3856 276.931 86.3856C275.303 86.3856 274.022 85.2107 274.022 82.3382C274.022 79.7578 275.433 78.5354 277.006 78.5354C277.769 78.5354 278.491 78.9361 278.907 79.3978V76.5253L280.378 75.7648V86.2294ZM278.927 84.0631V80.8918C278.593 80.4504 277.905 79.9004 277.156 79.9004C276.093 79.9004 275.514 80.7017 275.514 82.2975C275.514 84.1921 276.121 85.0274 277.21 85.0274C277.919 85.0274 278.532 84.552 278.92 84.0631H278.927Z" fill="#50555B"/>
<path d="M294.935 86.2294H293.321L292.469 83.8458H288.437L287.599 86.2294H286.032L289.663 76.1858H291.264L294.935 86.2294ZM292.013 82.4944L291.209 80.1856C290.964 79.4657 290.562 78.3045 290.446 77.8767C290.331 78.3045 289.97 79.4522 289.711 80.1991L288.907 82.4944H292.013Z" fill="#50555B"/>
<path d="M298.266 86.2294H296.781V76.5389L298.266 75.7648V86.2294Z" fill="#50555B"/>
<path d="M306.877 82.5827C306.877 85.1632 305.466 86.3856 303.9 86.3856C303.137 86.3856 302.415 85.9849 301.999 85.5231V86.2294H300.528V76.5253L301.999 75.7648V79.4114C302.544 78.9089 303.178 78.5354 303.975 78.5354C305.603 78.5354 306.883 79.7102 306.883 82.5827H306.877ZM305.392 82.6235C305.392 80.7288 304.785 79.8936 303.695 79.8936C302.987 79.8936 302.374 80.3689 301.979 80.8579V84.0292C302.313 84.4773 303.001 85.0206 303.75 85.0206C304.813 85.0206 305.392 84.2193 305.392 82.6235Z" fill="#50555B"/>
<path d="M314.867 82.3111C314.867 82.5827 314.84 82.8272 314.826 82.9834H309.833C309.989 84.4298 310.814 85.0478 311.733 85.0478C312.367 85.0478 312.871 84.8169 313.375 84.4434L314.254 85.3941C313.593 86.0256 312.803 86.3855 311.645 86.3855C309.874 86.3855 308.375 84.9663 308.375 82.4673C308.375 79.9683 309.731 78.5354 311.686 78.5354C313.831 78.5354 314.867 80.2738 314.867 82.3111ZM313.368 81.7678C313.293 80.7356 312.81 79.8732 311.583 79.8732C310.589 79.8732 309.983 80.5591 309.853 81.7678H313.368Z" fill="#50555B"/>
<path d="M326.978 86.2294H325.493V81.9647C325.493 80.4436 325.017 79.9003 324.043 79.9003C323.068 79.9003 322.592 80.6066 322.592 81.8221V86.2294H321.107V81.9647C321.107 80.4436 320.63 79.9003 319.656 79.9003C318.682 79.9003 318.205 80.6066 318.205 81.8221V86.2294H316.72V78.6916H318.205V79.4114C318.579 78.8681 319.226 78.5354 320.003 78.5354C321.025 78.5354 321.672 78.9225 322.074 79.6423C322.619 78.97 323.211 78.5354 324.39 78.5354C326.147 78.5354 326.978 79.683 326.978 81.9104V86.2294Z" fill="#50555B"/>
<path d="M334.901 86.2294H333.45V85.4824C332.932 85.9985 332.196 86.3856 331.379 86.3856C330.153 86.3856 328.756 85.6997 328.756 83.8458C328.756 82.1685 330.051 81.4079 331.767 81.4079C332.476 81.4079 333.034 81.5098 333.45 81.6932V81.1363C333.45 80.3214 332.946 79.8596 332.026 79.8596C331.25 79.8596 330.643 80.0023 330.051 80.335L329.478 79.2145C330.2 78.7731 331.004 78.5422 332.067 78.5422C333.749 78.5422 334.901 79.3571 334.901 81.0684V86.2362V86.2294ZM333.443 84.0903V83.0174C333.041 82.8136 332.523 82.6846 331.713 82.6846C330.759 82.6846 330.16 83.1124 330.16 83.8051C330.16 84.5521 330.636 85.0546 331.611 85.0546C332.401 85.0546 333.096 84.5657 333.436 84.0903H333.443Z" fill="#50555B"/>
<path d="M341.522 78.8546L341.133 80.2603C340.82 80.0905 340.486 79.9886 339.996 79.9886C339.063 79.9886 338.511 80.6473 338.511 81.924V86.2294H337.026V78.6916H338.511V79.4114C338.858 78.9089 339.492 78.5354 340.241 78.5354C340.847 78.5354 341.222 78.6508 341.522 78.8478V78.8546Z" fill="#50555B"/>
<path d="M344.608 86.2294H343.123V76.5389L344.608 75.7648V86.2294Z" fill="#50555B"/>
<path d="M353 82.3111C353 82.5827 352.973 82.8272 352.959 82.9834H347.966C348.123 84.4298 348.947 85.0478 349.867 85.0478C350.5 85.0478 351.004 84.8169 351.508 84.4434L352.387 85.3941C351.726 86.0256 350.936 86.3855 349.778 86.3855C348.007 86.3855 346.508 84.9663 346.508 82.4673C346.508 79.9683 347.864 78.5354 349.819 78.5354C351.965 78.5354 353 80.2738 353 82.3111ZM351.501 81.7678C351.427 80.7356 350.943 79.8732 349.717 79.8732C348.722 79.8732 348.116 80.5591 347.986 81.7678H351.501Z" fill="#50555B"/>
</g>
<defs>
<linearGradient id="paint0_linear_918_443" x1="43.2489" y1="59.9762" x2="43.2489" y2="86.2294" gradientUnits="userSpaceOnUse">
<stop stop-color="#F15622"/>
<stop offset="1" stop-color="#FBAC18"/>
</linearGradient>
<linearGradient id="paint1_linear_918_443" x1="60.1626" y1="43.1147" x2="86.4974" y2="43.1147" gradientUnits="userSpaceOnUse">
<stop stop-color="#F15622"/>
<stop offset="1" stop-color="#FBAC18"/>
</linearGradient>
<linearGradient id="paint2_linear_918_443" x1="0.000129737" y1="26.2532" x2="0.677105" y2="-0.000107631" gradientUnits="userSpaceOnUse">
<stop stop-color="#F15622"/>
<stop offset="1" stop-color="#FBAC18"/>
</linearGradient>
<linearGradient id="paint3_linear_918_443" x1="54.2842" y1="21.9139" x2="74.754" y2="21.9139" gradientUnits="userSpaceOnUse">
<stop stop-color="#F15622"/>
<stop offset="1" stop-color="#FBAC18"/>
</linearGradient>
<linearGradient id="paint4_linear_918_443" x1="54.2842" y1="64.3155" x2="74.754" y2="64.3155" gradientUnits="userSpaceOnUse">
<stop stop-color="#F15622"/>
<stop offset="1" stop-color="#FBAC18"/>
</linearGradient>
<linearGradient id="paint5_linear_918_443" x1="0" y1="43.1147" x2="46.3891" y2="43.1147" gradientUnits="userSpaceOnUse">
<stop stop-color="#28256B"/>
<stop offset="1" stop-color="#E44883"/>
</linearGradient>
<clipPath id="clip0_918_443">
<rect width="353" height="89" fill="white"/>
</clipPath>
</defs>
</svg>
