<svg width="375" height="375" viewBox="0 0 375 375" fill="none" xmlns="http://www.w3.org/2000/svg">
<path d="M153.067 201.549H11.7056C11.176 201.549 7.38088 200.022 6.61597 199.581C-2.26877 194.53 -2.18051 180.491 6.73364 175.44C7.38088 175.087 11.4114 173.355 11.7056 173.355H153.067L53.658 73.6177C44.8027 61.3415 57.2766 46.2165 70.8391 52.2077C113.998 91.709 154.067 134.94 196.078 175.822C203.08 183.311 203.257 190.565 196.785 198.406L75.1343 319.964C60.9835 332.358 42.5079 314.913 54.6877 300.229L153.038 201.549H153.067Z" fill="white"/>
<path d="M308.727 50.8853C321.877 49.5049 329.114 65.4817 320.141 75.0266L258.066 137.024C243.503 147.509 227.381 130.475 238.414 116.672L300.43 54.6151C302.578 52.7062 305.873 51.2083 308.756 50.9147L308.727 50.8853Z" fill="white"/>
<path d="M246.651 234.853C252.211 234.06 256.154 236.615 260.243 239.963C280.984 257.056 299.606 282.019 320.141 299.905C331.38 313.15 316.964 330.654 301.872 321.697L237.678 257.584C231.265 249.097 236.06 236.351 246.651 234.853Z" fill="white"/>
<path d="M272.746 173.53L362.035 173.413C378.981 175.439 379.334 198.817 362.771 201.46H272.658C256.124 199.11 255.83 175.821 272.776 173.501L272.746 173.53Z" fill="white"/>
<path d="M185.341 0.165237C195.226 -1.18573 201.021 5.92155 201.757 15.114C203.934 42.9264 200.139 73.6464 201.639 101.752C199.58 119.139 175.014 119.051 173.484 101.87C170.925 73.2352 175.397 40.7238 173.573 11.6779C174.749 5.80408 179.309 0.987568 185.341 0.165237Z" fill="white"/>
<path d="M186.046 260.227C195.402 259.258 201.08 266.601 201.727 275.206C203.904 303.018 200.109 333.738 201.609 361.844C199.491 379.554 174.984 379.172 173.455 361.962C170.895 333.327 175.367 300.815 173.543 271.769C174.778 265.514 179.633 260.903 186.017 260.227H186.046Z" fill="white"/>
</svg>
